<?xml version="1.0" encoding="UTF-8" standalone="yes"?>
<svg xmlns="http://www.w3.org/2000/svg" xmlns:xlink="http://www.w3.org/1999/xlink" version="1.0" x="0" y="0" width="360" height="240">
<rect width="360" height="80" x="0" y="0" fill="#ffffff" />
  <rect width="360" height="80" x="0" y="80" fill="#00335b" />
  <rect width="360" height="80" x="0" y="160" fill="#ce1126" />
<rect width="180" height="160" x="0" y="0" fill="#00335b" />
<g transform="translate(90.000000,80.000000)">
<g transform="scale(0.492754)">
<g transform="translate(-172.000000,-95.000000)">

<g transform="translate(-102,0)"><path style="fill:#000;fill-rule:evenodd;stroke:none" d="M 350.99 60.83 C 331.91 54.84 312.43 51.99 292.77 50.58 C 298.21 39.52 292.73 30.07 282.21 26.74 L 281.71 21.78 L 286.29 21.78 L 290.48 25.21 C 297.57 18.56 296.52 12.23 289.91 6.15 L 288 9.2 L 282.85 9.38 L 282.85 6.91 L 286.09 3.09 C 277.92 -0.97 269.47 -1.03 260.73 2.91 L 265.31 5.58 L 267.02 9.58 L 261.68 9.58 L 258.06 6.72 C 252.19 12.57 252.32 19.56 258.44 27.7 L 261.63 22.22 L 266.07 22.36 L 265.76 26.89 C 252.99 32.62 250.23 40.65 257.49 50.96 C 236.07 51.69 215.67 55.83 195.97 62.28 C 188.17 53.68 179.73 55.8 173.22 42.91 C 174.57 58.63 169.57 63.18 170.02 72.75 C 162.74 76.1 156.31 80.89 150.74 87.1 C 140.34 77.44 131.06 73.92 121.81 70.6 C 129.81 82.32 133.95 94.46 140.02 106.39 C 139.34 111.42 140.98 115.21 147.74 116.24 L 165.09 141.96 C 163.02 147.24 165.59 151.96 170.88 152.67 L 178.16 162.53 C 208.16 157.86 238.38 154.27 268.38 154.1 C 303.09 153.91 336.74 157.15 372.31 161.45 L 379.16 150.1 C 384.8 149.74 388.3 144.96 385.37 139.17 L 402.3 114.1 C 410.23 113.75 411.23 110.18 410.01 102.96 L 425.65 68.68 C 416.8 75.18 406.01 77.6 399.08 84.32 C 393.64 78.75 387.17 74.53 380.01 71.25 C 381.01 58.32 376.01 53.32 375.94 42.75 C 368.48 52.84 364.66 47.09 350.99 60.83 L 350.99 60.83 z M 359.23 109.22 C 361.99 105.13 359.22 104.72 356.82 107.18 C 349.18 117.94 352.16 125.34 363.87 129.26 C 379.93 131.25 384.5 124.31 388.72 116.83 C 390.33 113.69 389.14 111.79 386.87 115.9 C 381.91 120.86 382.74 125.18 372.14 126.81 C 374.51 119.88 375.91 107.95 384.56 95.11 C 387.21 91.38 390.39 91.7 393.58 91.84 C 388.72 86.66 382.3 82.62 375.43 78.89 L 373.18 82.6 C 383.27 83.79 386.86 90.14 380.01 100.66 C 376.86 110.09 363.48 117.58 363.68 126.29 C 356.14 123.5 354.89 118.89 359.23 109.22 L 359.23 109.22 z M 292.27 61.56 C 293.23 64.82 292.54 68.11 290.2 71.43 C 305.14 65.65 316.88 70.05 316.94 84.57 C 316.4 94.98 303.43 104.92 306.64 118.81 C 295.16 117.42 291.91 112.48 292.52 100.35 C 290.46 94.63 283.8 96.35 285.89 105.08 C 290.33 124.82 316.99 131.04 334.51 116.96 C 338.41 113.77 340.65 109.89 341.24 105.33 C 341.27 99.79 336.88 100.49 334.93 107.86 C 334.31 116.26 327.75 120.01 317.12 120.56 C 322.44 111.08 318.93 101.73 319.84 92.31 C 322.73 77.52 336.35 67.86 348.17 76.06 L 348.44 69.24 C 331.99 63.75 309.29 61.37 292.27 61.56 L 292.27 61.56 z M 256.48 61.18 C 255.58 64.46 256.32 67.74 258.71 71.02 C 243.68 65.47 232.01 70.05 232.17 84.57 C 232.87 94.97 244.87 106.25 241.87 120.19 C 253.33 118.63 258.37 111.13 257.59 100.16 C 259.57 94.41 264.73 96.25 263.53 104.61 C 259.39 124.41 232.83 131.04 215.09 117.23 C 211.15 114.1 208.84 110.25 208.19 105.71 C 208.07 100.16 212.49 100.8 214.54 108.14 C 215.28 116.53 221.91 120.18 232.54 120.57 C 227.07 111.17 230.44 101.77 229.39 92.36 C 226.28 77.62 215.23 70.99 200.82 76.55 L 200.44 69.73 C 220.42 64.33 239.33 61.41 256.49 61.19 L 256.48 61.18 z M 191.15 110.55 C 190.02 106.87 191.7 106.19 193.56 108.51 C 200.75 119.05 196.28 125.7 186.51 130.59 C 170.45 132.58 165.31 125.84 161.09 118.35 C 159.47 115.22 160.86 113.32 163.12 117.42 C 168.08 122.39 166.69 128.24 182.24 129.67 C 171.29 119.3 174.47 109.29 165.82 96.45 C 163.17 92.71 159.98 93.03 156.8 93.17 C 162.56 88.3 168.7 84.16 174.94 80.22 L 176.82 83.17 C 166.72 85.7 163.52 91.47 170.37 102 C 173.52 111.42 186.9 118.91 186.7 127.63 C 192.71 125.03 195.49 120.22 191.15 110.56"/><path style="fill:#ce1126;fill-rule:evenodd;stroke:none" d="M 172.22 75.84 L 151.25 90.5 L 153.29 93.29 L 174.26 78.07 L 172.22 75.84 z M 378.01 74.79 C 384.88 77.14 391.23 81.27 397.08 87.19 L 394.8 89.66 C 388.76 83.53 382.72 79.84 376.68 77.27 L 378.02 74.79 L 378.01 74.79 z M 289.91 53.05 L 290.48 57.63 L 292.96 57.81 C 312.21 58.22 331.49 60.64 349.21 67.16 L 350.16 64.3 C 331.75 58.04 311.37 54.72 289.9 53.05 L 289.91 53.05 z M 198.03 65.08 C 214.86 59 235.66 55.34 258.14 53.02 C 258.69 54.74 259.06 55.92 258.19 57.64 C 237.73 58.71 218.65 62.08 199.12 67.86 L 198.03 65.08 L 198.03 65.08 z M 261.31 48.86 L 273.89 33.79 L 287.05 49.43 C 294.81 41.65 289.63 29.12 273.89 29.41 C 259.52 30.16 253.9 40.18 261.31 48.86 L 261.31 48.86 z M 258.45 12.05 L 261.11 13.31 L 270.84 13.38 L 270.46 7.09 L 267.17 4.02 C 270.72 2.03 276.56 2.4 281.26 3.83 L 278.09 7.09 L 278.07 13.39 L 285.53 13.43 L 289.53 10.72 C 291.53 14.31 291.53 17.61 289.53 20.63 L 286.67 18.73 L 278.09 18.91 L 278.09 22.92 L 279.24 27.3 L 269.32 27.49 L 270.84 18.91 L 261.12 19.29 L 258.45 21.19 C 257.03 17.86 257.03 14.81 258.45 12.04 L 258.45 12.05 z M 177.14 55.09 C 185.79 60.46 197.93 61.24 199 81.05 C 213.35 70.78 221.97 81.82 225.57 91.08 C 228.2 97.84 223.67 106.05 227.96 117.67 C 222.22 116.67 218.67 112.75 217.3 105.92 C 214.21 94.54 201.63 97.36 205.55 109.47 C 213.84 125.16 228.4 128.28 241.42 126.84 C 255.72 125.27 268.19 115.55 267.03 99.63 C 263.12 91.35 258.84 91.07 254.19 98.82 C 251.46 104.56 255.55 113.84 245.99 116.03 C 246.63 104.92 234.7 93.81 234.79 85.15 C 236.79 70.44 247.45 68.71 264.03 75.86 C 254.92 57.69 266.21 47.58 274.41 38.97 C 283.15 48.45 291.99 56.46 284.79 75.59 C 304.4 64.97 318.95 76.66 313.68 87.43 C 309.39 96.21 301.78 109.71 303.1 116.03 C 288.71 113.21 303.28 93.71 287.8 93.62 C 277.06 96.26 279.33 110.84 291.35 120.13 C 298.09 125.23 306.29 127.41 315.95 126.68 C 327.79 126.48 337.05 119.34 344.53 107.47 C 347.13 99.8 338.17 94.97 334.52 101.76 C 332.01 110.44 328.25 116.3 321.29 118.05 C 323.87 108.79 322.18 97.68 324.02 88.61 C 329.79 75.76 338.53 72.81 350.24 79.75 C 351.35 58.5 366.02 58.2 372.98 50.2 C 374.31 60.58 382.12 66.03 367.74 83.19 C 379.11 84.68 383.98 90.2 374.56 104.58 C 370.92 110.7 364.49 115.53 361.41 121.84 C 355.35 115.54 362.27 112.59 362.71 107.96 C 364.02 100.39 355.12 101.47 350.49 112.33 C 348.91 124.9 354.15 133.14 374.43 131.86 C 382.31 129.03 388.18 124.39 391.11 117.11 C 392.44 113.04 390.63 110.63 386.77 112.13 C 382.76 116.41 377.62 125.9 374.72 125 C 376.6 118.73 379.41 112.1 381.29 105.84 C 385.22 94.45 390.8 91.29 398.03 96.34 C 399.85 86.8 409.7 81.88 416.46 78.81 L 405.89 102.03 C 396.34 100.57 396.42 108.23 398.43 112.34 L 381.81 137.89 C 373.1 139.07 369.84 143.61 375.34 148.25 L 371.7 157.29 C 307.12 143.67 242.89 143.59 179.04 158.38 L 173.85 151.01 C 180.86 145.73 176.86 139.72 168.66 139.53 L 150.9 114.66 C 155.86 109.54 151.74 102.74 142.98 103.73 C 139.45 95.99 138.15 89.73 132.39 80.5 C 141.68 83.14 149.99 88.61 151.99 98.54 C 157.09 92.08 162.56 94.36 168.39 105.37 C 171.03 112.47 170.52 118.28 176.31 126.68 C 168.11 124.86 167.57 118.12 163.2 113.84 C 160.01 110.93 155.45 114.02 158.55 119.03 C 170.8 136.7 189.84 139.62 198.99 122.04 C 201.09 114.11 198.45 108.01 191.07 103.73 C 186.15 103.73 185.33 107.28 187.79 111.92 C 190.34 115.47 192.07 117.93 188.88 123.4 C 182.28 112.14 175.85 108.57 172.49 102.59 C 166.89 92.63 168.26 85.86 182.32 84.87 C 169.53 71.44 175.18 65.43 177.13 55.09 L 177.14 55.09 z M 356.55 87.65 C 359.69 88.34 361.44 90.65 360.45 92.79 C 359.46 94.92 356.08 96.1 352.94 95.4 C 349.8 94.71 348.04 92.4 349.04 90.27 C 350.03 88.13 353.4 86.96 356.54 87.65 L 356.55 87.65 z M 357.38 85.41 C 362.09 86.48 364.71 90.04 363.23 93.32 C 361.74 96.61 356.68 98.41 351.97 97.34 C 347.27 96.27 344.64 92.72 346.12 89.43 C 347.61 86.15 352.67 84.34 357.38 85.41 L 357.38 85.41 z M 403.09 104.24 C 405.44 104.24 407.36 105.87 407.36 107.86 C 407.36 109.85 405.44 111.48 403.09 111.48 C 400.75 111.48 398.83 109.85 398.83 107.86 C 398.83 105.87 400.75 104.24 403.09 104.24 z M 379.52 140.25 C 381.87 140.25 383.79 141.87 383.79 143.86 C 383.79 145.86 381.87 147.48 379.52 147.48 C 377.18 147.48 375.26 145.86 375.26 143.86 C 375.26 141.87 377.18 140.25 379.52 140.25 z M 339.07 129.79 C 343.26 130.17 346.68 133.4 346.68 136.97 C 346.68 140.55 343.26 143.16 339.07 142.78 C 334.88 142.41 331.46 139.18 331.46 135.6 C 331.46 132.03 334.88 129.41 339.07 129.79 z M 338.87 131.9 C 341.8 132.16 344.19 134.42 344.19 136.92 C 344.19 139.42 341.8 141.24 338.87 140.98 C 335.94 140.72 333.55 138.46 333.55 135.96 C 333.55 133.46 335.94 131.64 338.87 131.9 z M 275.04 77.7 C 280.66 77.7 285.24 81.04 285.24 85.13 C 285.24 89.21 280.66 92.55 275.04 92.55 C 269.42 92.55 264.83 89.22 264.83 85.13 C 264.83 81.04 269.42 77.7 275.04 77.7 z M 274.76 79.56 C 279 79.56 282.46 81.97 282.46 84.94 C 282.46 87.9 279 90.32 274.76 90.32 C 270.52 90.32 267.06 87.9 267.06 84.94 C 267.06 81.97 270.52 79.56 274.76 79.56 z M 274.85 124.47 C 279.86 124.47 283.95 127.55 283.95 131.33 C 283.95 135.11 279.86 138.2 274.85 138.2 C 269.84 138.2 265.76 135.11 265.76 131.33 C 265.76 127.55 269.84 124.47 274.85 124.47 z M 274.66 126.7 C 278.14 126.7 280.97 128.9 280.97 131.61 C 280.97 134.32 278.14 136.53 274.66 136.53 C 271.19 136.53 268.36 134.32 268.36 131.61 C 268.36 128.91 271.19 126.7 274.66 126.7 z M 195.24 87.91 C 198.61 87.91 201.36 89.99 201.36 92.55 C 201.36 95.1 198.61 97.18 195.24 97.18 C 191.86 97.18 189.11 95.1 189.11 92.55 C 189.11 89.99 191.86 87.91 195.24 87.91 z M 195.51 86.22 C 200.27 86.22 204.14 89.16 204.14 92.76 C 204.14 96.36 200.27 99.29 195.51 99.29 C 190.76 99.29 186.88 96.36 186.88 92.76 C 186.88 89.16 190.76 86.22 195.51 86.22 z M 211.01 130.39 C 215.3 130.39 218.8 133.33 218.8 136.93 C 218.8 140.52 215.3 143.46 211.01 143.46 C 206.72 143.46 203.22 140.53 203.22 136.93 C 203.22 133.33 206.72 130.39 211.01 130.39 z M 211.1 132.64 C 214.12 132.64 216.57 134.59 216.57 137 C 216.57 139.4 214.12 141.36 211.1 141.36 C 208.09 141.36 205.63 139.4 205.63 137 C 205.63 134.59 208.09 132.64 211.1 132.64 z M 170.92 142.72 C 173.27 142.72 175.19 144.25 175.19 146.12 C 175.19 147.99 173.27 149.52 170.92 149.52 C 168.57 149.52 166.66 148 166.66 146.12 C 166.66 144.25 168.57 142.72 170.92 142.72 z M 146.15 105.42 C 148.34 105.42 150.13 107.15 150.13 109.28 C 150.13 111.41 148.34 113.14 146.15 113.14 C 143.95 113.14 142.16 111.41 142.16 109.28 C 142.16 107.15 143.95 105.42 146.15 105.42"/></g>
</g>
</g>
</g>
</svg>

